<?xml version="1.0" encoding="UTF-8" standalone="no"?>
<svg xmlns="http://www.w3.org/2000/svg" width="256" height="256" viewBox="0 0 256 256">
  <!-- Outer circle -->
  <circle cx="128" cy="128" r="120" fill="#1e5eff"/>
  <!-- Inner circle -->
  <circle cx="128" cy="128" r="108" fill="#ffffff"/>

  <!-- Wave shape -->
  <path d="
    M 40 130
    C 70 95, 110 95, 140 120
    C 165 140, 200 135, 216 120
    L 216 150
    C 200 165, 165 170, 140 160
    C 110 145, 70 150, 40 170
    Z
  " fill="#1e5eff"/>

  <!-- Text converted to paths: 'il mare' simplified geometric lettering -->
  <!-- i -->
  <rect x="78" y="178" width="8" height="22" fill="#1e5eff"/>
  <rect x="78" y="170" width="8" height="6" fill="#1e5eff"/>

  <!-- l -->
  <rect x="92" y="170" width="8" height="30" fill="#1e5eff"/>

  <!-- m -->
  <path d="
    M 110 200
    L 110 178
    C 110 172, 122 172, 122 178
    L 122 200
    L 130 200
    L 130 178
    C 130 172, 142 172, 142 178
    L 142 200
    Z
  " fill="#1e5eff"/>

  <!-- a -->
  <path d="
    M 152 190
    C 152 176, 176 176, 176 190
    L 176 200
    L 168 200
    L 168 196
    C 164 202, 152 200, 152 190
    Z
  " fill="#1e5eff"/>

  <!-- r -->
  <path d="
    M 186 200
    L 186 178
    C 186 172, 198 172, 198 178
    L 198 182
    C 194 182, 190 186, 190 190
    L 190 200
    Z
  " fill="#1e5eff"/>

  <!-- e -->
  <path d="
    M 206 190
    C 206 176, 230 176, 230 190
    L 230 194
    L 214 194
    C 214 200, 230 200, 230 200
    C 222 206, 206 202, 206 190
    Z
  " fill="#1e5eff"/>
</svg>
